<?xml version="1.0"?>
<svg xmlns="http://www.w3.org/2000/svg" xmlns:xlink="http://www.w3.org/1999/xlink" version="1.1" id="Capa_1" x="0px" y="0px" viewBox="0 0 507.937 507.937" style="enable-background:new 0 0 507.937 507.937;" xml:space="preserve" width="512px" height="512px"><g><g>
	<g>
		<path d="M253.968,122.9c-85.8,0-155.6,69.8-155.6,155.6s69.8,155.6,155.6,155.6s155.6-69.8,155.6-155.6    S339.768,122.9,253.968,122.9z M262.168,417.3v-24.2h-16.4v24.2c-70.2-4.1-126.5-60.4-130.6-130.6h24.2v-16.4h-24.2    c4.1-70.2,60.4-126.5,130.6-130.6v24.2h16.4v-24.2c70.2,4.1,126.5,60.4,130.6,130.6h-24.2v16.4h24.2    C388.668,356.9,332.368,413.2,262.168,417.3z" data-original="#000000" class="active-path" data-old_color="#000000" fill="#39439F"/>
	</g>
</g><g>
	<g>
		<path d="M404.668,417c33.5-36.5,54.1-85.1,54.1-138.5c0-110.2-87.5-200.3-196.6-204.6V57.3h65.5V41c0-22.6-18.4-41-41-41h-65.5    c-22.6,0-41,18.4-41,41v16.4h65.5V74c-109,4.2-196.5,94.3-196.5,204.5c0,53,20.3,101.4,53.4,137.8l-35.6,35.6    c-7.8,7-17.3,29.1,0,46.3c6.2,6.2,25.9,18.4,46.3,0l41-41c29.5,16.5,63.5,26,99.7,26c35.8,0,69.5-9.3,98.8-25.5l40.5,40.5    c16,15.5,36.3,10,46.3,0c11.5-11.5,14-32.4,0-46.3L404.668,417z M196.668,41c0-13.6,11-24.6,24.6-24.6h65.5    c13.6,0,24.6,11,24.6,24.6h-49.1h-16.4H196.668z M101.768,486.7c-6.2,6.2-17,6.2-23.2,0c-3.1-3.1-9-13.1,0-23.2l35.6-35.6    c8,7.5,16.6,14.4,25.8,20.6L101.768,486.7z M253.968,466.9c-103.9,0-188.4-84.5-188.4-188.4s84.5-188.4,188.4-188.4    s188.4,84.5,188.4,188.4C442.368,388.9,351.368,466.9,253.968,466.9z M428.068,486.7c-6.2,6.2-17,6.2-23.2,0l-37.6-37.7    c9.2-6.1,17.8-13,25.9-20.4l34.9,34.9C432.668,468.1,435.868,478.9,428.068,486.7z" data-original="#000000" class="active-path" data-old_color="#000000" fill="#39439F"/>
	</g>
</g><g>
	<g>
		<path d="M294.068,270.3c-3.2-16-15.9-28.7-31.9-31.9v-58.2h-16.4v58.2c-18.7,3.8-32.8,20.4-32.8,40.1c0,22.6,18.4,41,41,41    c19.8,0,36.3-14.1,40.1-32.8h50v-16.4H294.068z M253.968,303.1c-13.6,0-24.6-11-24.6-24.6c0-13.6,11-24.6,24.6-24.6    c13.6,0,24.6,11,24.6,24.6C278.568,292.1,267.568,303.1,253.968,303.1z" data-original="#000000" class="active-path" data-old_color="#000000" fill="#39439F"/>
	</g>
</g></g> </svg>
