<?xml version="1.0"?>
<svg xmlns="http://www.w3.org/2000/svg" height="512px" viewBox="0 0 60 51" width="512px" class=""><g><g id="Page-1" fill="none" fill-rule="evenodd"><g id="008---Coffee-and-Croissant" fill="rgb(0,0,0)" fill-rule="nonzero"><path id="Shape" d="m57.65 43h-6.745c2.5278438-1.0887131 4.6755749-2.9033736 6.171-5.214.318727-.5301793.3593932-1.1823321.109-1.748-.066-.15-.148-.33-.24-.526 1.1869029-1.7145836 2.0713574-3.6197966 2.615-5.633.4593302-2.1816141.5646763-4.4229201.312-6.638-.102854-.9380104-.7371439-1.7327223-1.629-2.041-1.014-4.866-2.379-5.643-2.841-5.9-.5870222-.336412-1.295492-.3864909-1.924-.136-2.476.943-2.485 3.156-2.493 5.107 0 .467-.015.944-.045 1.42-.9606752.2242445-1.7360728.9311133-2.048 1.867-.19953.5831694-.4766875 1.1368117-.824 1.646-.4126926-.2196886-.8377343-.415348-1.273-.586-.4138928-.1533309-.8693158-.1515547-1.282.005l-5.135 1.962c-.4032179.1561665-.7394708.4478686-.951.825-.2377353.4337225-.4517177.8800476-.641 1.337-.2677382-.0819151-.5302264-.1800977-.786-.294v-11.453c0-1.1045695-.8954305-2-2-2h-24c-1.1045695 0-2 .8954305-2 2v1.362c-.92415187-.2402582-1.87512793-.3619025-2.83-.362-7.17 0-7.17 7.88-7.17 10.47 0 5.789 2.814 9.53 7.17 9.53 1.1539351-.0063393 2.30157749-.1705286 3.411-.488.738266 2.2190528 2.1690634 4.1426726 4.082 5.488h-8.313c-.5774462-.049152-1.15058902.1345035-1.59192723.5101105s-.71426775.9120131-.75807277 1.4898895v2c0 2.243 2.218 4 5.05 4h45.9c2.832 0 5.05-1.757 5.05-4v-2c-.043805-.5778764-.3167346-1.1142825-.7580728-1.4898895s-1.014481-.5592625-1.5919272-.5101105zm-3.462-25.974c.0747636-.0402587.1657055-.0356346.236.012.171.095.992.726 1.747 4.037-.841.035-1.931.109-3.2.273.013-.373.016-.737.017-1.076.005-2.072.106-2.829 1.2-3.246zm-3.388 7.138c.1019189-.2975694.3594957-.5147796.67-.565.185-.038.368-.065.571-.1 1.7461601-.2950592 3.513135-.4498869 5.284-.463h.066c.2442174-.0166374.4599992.1577318.495.4.2304313 1.9904468.1406276 4.0049523-.266 5.967-.37752 1.4268423-.9627788 2.7904246-1.737 4.047-1.5143404-2.7984192-3.5952424-5.250546-6.11-7.2.4325107-.6471831.7778187-1.3485584 1.027-2.086zm-9.65 4.261 5.013-1.915c5.353 2.105 8.6 8.972 9.2 10.26-.553.956-2.333 3.369-6.909 5.115-1.5695028.6177391-3.2236731.9936869-4.906 1.115h-1.319c-.6979997-.0321057-1.3886722-.1565209-2.054-.37-.057-.245-.134-.581-.211-.985-.476-2.477-1.307-8.702 1.182-13.22zm-6.091 13.032c.9858946.4784678 2.0113974.8706014 3.065 1.172.03.14.058.259.083.371h-4.907c.639346-.4505591 1.2289914-.9677978 1.759-1.543zm2.673-1.057c-1.3459917-.4450366-2.6125199-1.1015924-3.752-1.945-1.4908343-1.2477453-2.7597514-2.738799-3.753-4.41-.1188041-.2554172-.0439255-.5590914.18-.73.013-.012.026-.024.037-.036 1.3787513-1.1878761 2.8467388-2.2680555 4.391-3.231.159-.1.318-.207.511-.319.2329366-.1515624.5316094-.1581479.771-.017.6260338.3968764 1.3041874.7048221 2.015.915-.7806113 3.1988362-.9165873 6.5210707-.4 9.773zm-8.656-13.672c.0313739-.1057772.1129613-.1892359.218-.223 1.06-.4 1.545.078 2.78 1.661.212.271.439.561.683.852-1.09.731-1.987 1.409-2.665 1.955-1.04-2.318-1.226-3.703-1.016-4.245zm-19.076 4.645c-.89069279.3998395-1.85377499.613215-2.83.627-.76 0-1.17-1.819-1.17-3.53 0-4.47.676-4.47 1.17-4.47 1.02383378-.0417217 2.02845333.2866433 2.83.925zm-8-2.9c0-3.946.588-8.473 5.17-8.473.96081055-.0048014 1.91620706.1440784 2.83.441v2.149c-.8889702-.4008443-1.85491297-.6022246-2.83-.59-2.928 0-3.17 3.061-3.17 6.47 0 3.463 1.185 5.53 3.17 5.53.96441082-.0099033 1.92058186-.1788381 2.83-.5v.5c.0042461.5226935.0463564 1.0443924.126 1.561-.96002924.2835145-1.95501198.4312809-2.956.439-3.237 0-5.17-2.815-5.17-7.53zm10.233 7.551c-.1557672-.6633702-.2339578-1.3425878-.233-2.024l-.0000087-17h24.0000087v10.645c-.5240387-.0488168-1.0509886.0553921-1.517.3-.289-.33-.567-.67-.832-1.01-1.133-1.452-2.54-3.263-5.068-2.3-.6336668.2341163-1.1341067.7323661-1.371 1.365-.521 1.343-.067 3.459 1.359 6.431-.5226578.8072245-.5401172 1.8415963-.045 2.666 1.1192697 1.8743231 2.5493516 3.5444991 4.229 4.939.175.135.356.258.537.382-1.6743466 1.6573767-3.9360879 2.5855102-6.292 2.582h-6c-4.197284.0172163-7.8426871-2.8847192-8.767-6.979zm45.767 10.976c0 1.084-1.4 2-3.05 2h-45.9c-1.65 0-3.05-.916-3.05-2v-1.909c.10544796-.0634555.22699837-.0950586.35-.091h51.3c.1230016-.0040586.244552.0275445.35.091z" data-original="#000000" class="active-path" data-old_color="#000000" fill="#FFFFFF"/><path id="Shape" d="m22 11c0 .5522847.4477153 1 1 1s1-.4477153 1-1c-.0066363-.705428.2755433-1.3828758.781-1.875 1.6253757-1.76631178 1.6253757-4.48368822 0-6.25-.5054567-.4921242-.7876363-1.16957203-.781-1.875 0-.55228475-.4477153-1-1-1s-1 .44771525-1 1c-.0088131 1.15932949.4275017 2.27785595 1.219 3.125.4999069.49588303.7810925 1.17086442.7810925 1.875s-.2811856 1.37911697-.7810925 1.875c-.7914983.84714405-1.2278131 1.96567051-1.219 3.125z" data-original="#000000" class="active-path" data-old_color="#000000" fill="#FFFFFF"/><path id="Shape" d="m16 11c0 .5522847.4477153 1 1 1s1-.4477153 1-1c-.0066363-.705428.2755433-1.3828758.781-1.875 1.6253757-1.76631178 1.6253757-4.48368822 0-6.25-.5054567-.4921242-.7876363-1.16957203-.781-1.875 0-.55228475-.4477153-1-1-1s-1 .44771525-1 1c-.0088131 1.15932949.4275017 2.27785595 1.219 3.125.4999069.49588303.7810925 1.17086442.7810925 1.875s-.2811856 1.37911697-.7810925 1.875c-.7914983.84714405-1.2278131 1.96567051-1.219 3.125z" data-original="#000000" class="active-path" data-old_color="#000000" fill="#FFFFFF"/><path id="Shape" d="m28 11c0 .5522847.4477153 1 1 1s1-.4477153 1-1c-.0066363-.705428.2755433-1.3828758.781-1.875 1.6253757-1.76631178 1.6253757-4.48368822 0-6.25-.5054567-.4921242-.7876363-1.16957203-.781-1.875 0-.55228475-.4477153-1-1-1s-1 .44771525-1 1c-.0088131 1.15932949.4275017 2.27785595 1.219 3.125.4999069.49588303.7810925 1.17086442.7810925 1.875s-.2811856 1.37911697-.7810925 1.875c-.7914983.84714405-1.2278131 1.96567051-1.219 3.125z" data-original="#000000" class="active-path" data-old_color="#000000" fill="#FFFFFF"/></g></g></g> </svg>
