<?xml version="1.0"?>
<svg xmlns="http://www.w3.org/2000/svg" xmlns:xlink="http://www.w3.org/1999/xlink" version="1.1" id="Capa_1" x="0px" y="0px" viewBox="0 0 368 368" style="enable-background:new 0 0 368 368;" xml:space="preserve" width="512px" height="512px"><g><g>
	<g>
		<path d="M344,112h-16c-2.816,0-5.488,0.576-8,1.472V88c0-13.232-10.768-24-24-24h-16c-13.232,0-24,10.768-24,24v56H112V88    c0-13.232-10.768-24-24-24H72c-13.232,0-24,10.768-24,24v25.472c-2.512-0.896-5.184-1.472-8-1.472H24c-13.232,0-24,10.768-24,24    v96c0,13.232,10.768,24,24,24h16c2.816,0,5.488-0.576,8-1.472V280c0,13.232,10.768,24,24,24h16c13.232,0,24-10.768,24-24v-56h144    v56c0,13.232,10.768,24,24,24h16c13.232,0,24-10.768,24-24v-25.472c2.512,0.896,5.184,1.472,8,1.472h16c13.232,0,24-10.768,24-24    v-96C368,122.768,357.232,112,344,112z M48,232c0,4.408-3.592,8-8,8H24c-4.408,0-8-3.592-8-8v-96c0-4.408,3.592-8,8-8h16    c4.408,0,8,3.592,8,8V232z M96,280c0,4.408-3.592,8-8,8H72c-4.408,0-8-3.592-8-8v-48v-96V88c0-4.408,3.592-8,8-8h16    c4.408,0,8,3.592,8,8V280z M256,208H112v-48h144V208z M304,136v96v48c0,4.408-3.592,8-8,8h-16c-4.408,0-8-3.592-8-8V88    c0-4.408,3.592-8,8-8h16c4.408,0,8,3.592,8,8V136z M352,232c0,4.408-3.592,8-8,8h-16c-4.408,0-8-3.592-8-8v-96    c0-4.408,3.592-8,8-8h16c4.408,0,8,3.592,8,8V232z" data-original="#000000" class="active-path" data-old_color="#000000" fill="#39439F"/>
	</g>
</g></g> </svg>
