<?xml version="1.0"?>
<svg xmlns="http://www.w3.org/2000/svg" height="512px" viewBox="0 -106 512 512" width="512px" class=""><g><path d="m492 201.71875v-44.363281c12.382812-5.507813 20.398438-18.96875 17.089844-33.125-21.332032-91.503907-158.980469-124.230469-253.089844-124.230469-46.144531 0-98.507812 7.738281-142.71875 23.5625-5.203125 1.863281-7.90625 7.585938-6.046875 12.785156 1.863281 5.203125 7.589844 7.90625 12.785156 6.046875 1.703125-.613281 3.441407-1.210937 5.191407-1.800781l13.125 36.046875c5.664062 15.566406 22.929687 23.574219 38.445312 17.933594 15.535156-5.652344 23.582031-22.902344 17.9375-38.453125l-10.914062-29.988282c11.324218-1.90625 22.875-3.390624 34.527343-4.421874l20.003907 54.929687c5.664062 15.570313 22.929687 23.574219 38.445312 17.9375 15.535156-5.65625 23.582031-22.90625 17.9375-38.457031l-12.851562-35.300782c12.511718.769532 25.085937 2.089844 37.582031 3.9375l18.886719 51.882813c5.667968 15.570313 22.929687 23.574219 38.445312 17.9375 15.535156-5.65625 23.585938-22.90625 17.9375-38.460937l-5.320312-14.597657c38.804687 13.597657 89.199218 40 100.214843 87.257813 1.363281 5.828125-4.019531 11.226562-9.980469 11.226562h-447.261718c-5.980469 0-11.34375-5.410156-9.980469-11.230468 4.269531-18.324219 14.808594-34.996094 31.316406-49.558594 4.140625-3.652344 4.539063-9.972656.886719-14.113282-3.65625-4.140624-9.976562-4.539062-14.117188-.886718-19.6875 17.367187-32.328124 37.558594-37.5625 60.011718-3.304687 14.132813 4.675782 27.609376 17.085938 33.128907v44.363281c-11.640625 4.128906-20 15.246094-20 28.28125 0 38.597656 31.402344 70 70 70h372c38.597656 0 70-31.402344 70-70 0-13.035156-8.359375-24.152344-20-28.28125zm-322.054688-125.9375c-5.183593 1.882812-10.933593-.800781-12.816406-5.980469l-12.761718-35.046875c6.367187-1.746094 12.898437-3.34375 19.546874-4.789062l12.007813 32.988281c1.882813 5.1875-.800781 10.941406-5.976563 12.828125zm100 0c-5.183593 1.882812-10.933593-.800781-12.816406-5.984375l-18.003906-49.429687c5.703125-.234376 11.347656-.367188 16.875-.367188 1.46875 0 2.890625.011719 4.296875.027344l15.625 42.925781c1.882813 5.1875-.800781 10.941406-5.976563 12.828125zm100 0c-5.183593 1.882812-10.933593-.800781-12.816406-5.980469l-14.957031-41.085937c7.933594 1.605468 15.707031 3.425781 23.261719 5.441406l10.488281 28.796875c1.882813 5.1875-.800781 10.941406-5.976563 12.828125zm-9.800781 124.21875 40-40h71.855469v40zm-144.144531 35.855469-75.855469-75.855469h151.714844zm-176-75.855469h71.855469l40 40h-111.855469zm280.144531 0h51.714844l-75.859375 75.855469-25.855469-25.855469zm121.855469 120h-372c-27.570312 0-50-22.429688-50-50 0-5.515625 4.484375-10 10-10h141.855469l37.074219 37.070312c1.953124 1.953126 4.511718 2.929688 7.070312 2.929688s5.117188-.976562 7.070312-2.929688l32.929688-32.925781 32.929688 32.925781c1.953124 1.953126 4.511718 2.929688 7.070312 2.929688s5.117188-.976562 7.070312-2.929688l37.074219-37.070312h141.855469c5.515625 0 10 4.484375 10 10 0 27.570312-22.429688 50-50 50zm0 0" data-original="#000000" class="active-path" data-old_color="#000000" fill="#FFFFFF"/><path d="m90 49c0-5.519531-4.480469-10-10-10s-10 4.480469-10 10 4.480469 10 10 10 10-4.480469 10-10zm0 0" data-original="#000000" class="active-path" data-old_color="#000000" fill="#FFFFFF"/></g> </svg>
