<?xml version="1.0"?>
<svg xmlns="http://www.w3.org/2000/svg" id="Layer_1" height="512px" viewBox="0 0 512 512" width="512px" data-name="Layer 1" class=""><g><path d="m332.118 489.943a34.6 34.6 0 0 0 36.864-32.183l1.519-22.411-67.324-30.1-3.242 47.835a34.642 34.642 0 0 0 32.183 36.859z" data-original="#000000" class="active-path" data-old_color="#000000" fill="#FFFFFF"/><path d="m307.837 352.35 71.305 33.561 23.085-82.655c16.523-76.042 6.307-132.859-28.036-155.9-20.142-13.517-41.943-10.763-54.613-2.035-.143.1-.291.191-.442.277-.1.056-11.473 6.713-21.448 21.458-13.3 19.65-18.006 43.717-14 71.538z" data-original="#000000" class="active-path" data-old_color="#000000" fill="#FFFFFF"/><path d="m208.509 289.305-67.382 29.979 1.473 22.416a34.6 34.6 0 1 0 69.057-4.55z" data-original="#000000" class="active-path" data-old_color="#000000" fill="#FFFFFF"/><path d="m132.58 269.828 71.368-33.428 24.366-113.715c4.055-27.813-.61-51.888-13.868-71.563-9.948-14.764-21.312-21.443-21.425-21.508-.14-.081-.293-.178-.426-.269-12.652-8.75-34.447-11.546-54.616 1.933-34.387 22.979-44.708 79.778-28.328 155.851z" data-original="#000000" class="active-path" data-old_color="#000000" fill="#FFFFFF"/></g> </svg>
