<?xml version="1.0"?>
<svg xmlns="http://www.w3.org/2000/svg" xmlns:xlink="http://www.w3.org/1999/xlink" version="1.1" id="Capa_1" x="0px" y="0px" viewBox="0 0 512 512" style="enable-background:new 0 0 512 512;" xml:space="preserve" width="512px" height="512px"><g><g>
	<g>
		<path d="M465,459.53V167.307H349V459.53h-35v-247H198v247h-35v-197H47v197H0v30h47h116h35h116h35h116h47v-30H465z M133,459.53H77    v-167h56V459.53z M284,459.53h-56v-217h56V459.53z M435,459.53h-56V197.307h56V459.53z" data-original="#000000" class="active-path" data-old_color="#000000" fill="#FFFFFF"/>
	</g>
</g><g>
	<g>
		<polygon points="410.227,22.47 396.734,49.265 426.249,64.127 18.442,194.2 27.558,222.781 433.898,93.176 419.905,121.834     446.862,134.997 483.734,59.486   " data-original="#000000" class="active-path" data-old_color="#000000" fill="#FFFFFF"/>
	</g>
</g></g> </svg>
